<?xml version="1.0" encoding="UTF-8"?><svg id="_Слой_2" xmlns="http://www.w3.org/2000/svg" xmlns:xlink="http://www.w3.org/1999/xlink" viewBox="0 0 1918.03 785.37"><defs><style>.cls-1{font-size:550px;}.cls-2{letter-spacing:.03em;}.cls-3{letter-spacing:-.02em;}.cls-4{letter-spacing:-.05em;}.cls-5{fill:url(#_Безымянный_градиент_14);}.cls-6{fill:#fff;font-family:AkkuratLL-Black, 'Akkurat LL'; font-weight: 800;}.cls-7{font-size:280px;}.cls-8{fill:url(#_Безымянный_градиент_16);}</style><linearGradient id="_Безымянный_градиент_14" x1="531.36" y1="149.84" x2="560.71" y2="149.84" gradientUnits="userSpaceOnUse"><stop offset="0" stop-color="#c71585"/><stop offset="1" stop-color="#3f8ad9"/></linearGradient><linearGradient id="_Безымянный_градиент_16" x1="0" y1="385.92" x2="624.06" y2="385.92" gradientUnits="userSpaceOnUse"><stop offset=".36" stop-color="#c71585"/><stop offset="1" stop-color="#3f8ad9"/></linearGradient></defs><g id="_Слой_3"><g id="scraper"><path id="Path_105" class="cls-5" d="M535.66,139.47c-5.73,5.73-5.73,15.02,0,20.75,5.73,5.73,15.02,5.73,20.75,0,5.73-5.73,5.73-15.02,0-20.75h0c-5.73-5.73-15.02-5.73-20.75,0Z"/><path id="Path_106" class="cls-8" d="M624.06,145.95c.05-18.98-7.49-37.19-20.95-50.57l-2.59-2.6c-27.93-27.93-73.22-27.93-101.15,0h0s-148.96,148.96-148.96,148.96c-92.7-10.27-224.85,53.06-339.62,163.5l-10.78,10.37,284.42,284.42,10.37-10.78c112.56-117.01,176.84-254.93,162.52-346.92l145.8-145.8c13.46-13.38,21-31.6,20.95-50.57Zm-193.93,223.56c.41,79.62-54.97,190-146.22,288.52L42.01,416.11c94.23-87.21,201.05-142.32,279.99-145.96l-28.83,28.83,103.75,103.74,33.21-33.21Zm152.22-193.73l-185.45,185.45-62.25-62.25,185.45-185.45c16.47-16.47,43.18-16.47,59.65,0l2.6,2.6c16.47,16.47,16.47,43.18,0,59.65h0Z"/></g><text class="cls-6" transform="translate(657.62 469.97)"><tspan class="cls-1"><tspan class="cls-2" x="0" y="0">WE</tspan><tspan class="cls-4" x="887.51" y="0">B</tspan></tspan><tspan class="cls-7"><tspan class="cls-3" x="0" y="230">SCRAPE</tspan><tspan class="cls-4" x="1070.29" y="230">R</tspan></tspan></text></g></svg>
